<svg width="650" height="650" viewBox="0 0 650 650" fill="none" xmlns="http://www.w3.org/2000/svg">
<g id="sun">
<g id="Sun">
<rect id="Rectangle 5" width="650" height="650" fill="#EBF4F4"/>
</g>
<g id="sun 1" clip-path="url(#clip0)">
<path id="Vector" d="M324.998 423.999C379.674 423.999 423.999 379.675 423.999 324.998C423.999 270.321 379.674 225.997 324.998 225.997C270.321 225.997 225.997 270.321 225.997 324.998C225.997 379.675 270.321 423.999 324.998 423.999Z" fill="#FFD347"/>
<path id="Vector_2" d="M325 226.002C321.417 226.002 317.879 226.197 314.394 226.568C364.081 231.861 402.784 273.908 402.784 324.999C402.784 376.09 364.08 418.138 314.394 423.431C317.879 423.803 321.416 423.997 325 423.997C379.675 423.997 423.998 379.674 423.998 324.999C423.998 270.324 379.676 226.002 325 226.002Z" fill="#FFBE31"/>
<path id="Vector_3" d="M325 429.287C267.496 429.287 220.713 382.504 220.713 325C220.713 301.372 228.835 278.226 243.582 259.826C245.408 257.546 248.738 257.179 251.016 259.007C253.295 260.834 253.663 264.162 251.836 266.441C238.395 283.212 231.29 303.46 231.29 325C231.29 376.671 273.328 418.71 325 418.71C376.671 418.71 418.71 376.672 418.71 325C418.71 273.328 376.671 231.29 325 231.29C303.747 231.29 283.711 238.226 267.057 251.346C264.762 253.152 261.437 252.759 259.629 250.465C257.822 248.17 258.216 244.845 260.51 243.037C279.048 228.432 301.348 220.712 324.999 220.712C382.503 220.712 429.286 267.495 429.286 324.999C429.286 382.503 382.504 429.287 325 429.287Z" fill="#434C54"/>
<g id="Group">
<path id="Vector_4" d="M325 188.861C322.079 188.861 319.711 186.494 319.711 183.572V155.289C319.711 152.367 322.079 150 325 150C327.921 150 330.289 152.367 330.289 155.289V183.573C330.289 186.494 327.921 188.861 325 188.861Z" fill="#FF8025"/>
<path id="Vector_5" d="M254.291 207.81C252.463 207.81 250.686 206.862 249.706 205.165L235.565 180.671C234.105 178.142 234.971 174.907 237.501 173.447C240.031 171.988 243.265 172.852 244.726 175.383L258.867 199.876C260.327 202.406 259.461 205.64 256.931 207.101C256.098 207.581 255.189 207.81 254.291 207.81Z" fill="#FF8025"/>
<path id="Vector_6" d="M202.516 259.576C201.619 259.576 200.709 259.348 199.877 258.866L175.382 244.725C172.853 243.265 171.986 240.03 173.446 237.5C174.906 234.97 178.141 234.105 180.671 235.564L205.165 249.706C207.695 251.166 208.562 254.4 207.101 256.93C206.121 258.628 204.344 259.576 202.516 259.576Z" fill="#FF8025"/>
<path id="Vector_7" d="M183.573 330.289H155.289C152.368 330.289 150 327.922 150 325C150 322.078 152.368 319.711 155.289 319.711H183.573C186.494 319.711 188.862 322.078 188.862 325C188.862 327.922 186.494 330.289 183.573 330.289Z" fill="#FF8025"/>
<path id="Vector_8" d="M178.031 415.145C176.203 415.145 174.425 414.197 173.446 412.5C171.986 409.971 172.852 406.736 175.382 405.275L199.876 391.134C202.405 389.675 205.64 390.539 207.101 393.07C208.561 395.599 207.695 398.834 205.165 400.294L180.671 414.436C179.837 414.917 178.927 415.145 178.031 415.145Z" fill="#FF8025"/>
<path id="Vector_9" d="M240.14 477.264C239.243 477.264 238.333 477.035 237.501 476.554C234.971 475.094 234.105 471.859 235.565 469.329L249.706 444.835C251.166 442.305 254.401 441.439 256.931 442.899C259.46 444.359 260.327 447.594 258.867 450.124L244.726 474.618C243.745 476.315 241.968 477.264 240.14 477.264Z" fill="#FF8025"/>
<path id="Vector_10" d="M325 500C322.079 500 319.711 497.633 319.711 494.711V466.427C319.711 463.506 322.079 461.138 325 461.138C327.921 461.138 330.289 463.506 330.289 466.427V494.711C330.289 497.633 327.921 500 325 500Z" fill="#FF8025"/>
<path id="Vector_11" d="M409.86 477.264C408.032 477.264 406.255 476.316 405.275 474.619L391.134 450.124C389.674 447.595 390.54 444.36 393.07 442.899C395.599 441.441 398.834 442.305 400.295 444.835L414.436 469.33C415.896 471.859 415.03 475.094 412.5 476.555C411.667 477.035 410.758 477.264 409.86 477.264Z" fill="#FF8025"/>
<path id="Vector_12" d="M471.969 415.145C471.073 415.145 470.163 414.916 469.33 414.435L444.836 400.294C442.306 398.834 441.439 395.599 442.9 393.069C444.36 390.539 447.595 389.673 450.125 391.133L474.619 405.274C477.148 406.735 478.015 409.969 476.555 412.499C475.575 414.196 473.797 415.145 471.969 415.145Z" fill="#FF8025"/>
<path id="Vector_13" d="M494.711 330.289H466.427C463.506 330.289 461.138 327.922 461.138 325C461.138 322.078 463.506 319.711 466.427 319.711H494.711C497.632 319.711 500 322.078 500 325C500 327.922 497.632 330.289 494.711 330.289Z" fill="#FF8025"/>
<path id="Vector_14" d="M447.484 259.576C445.656 259.576 443.879 258.628 442.899 256.931C441.439 254.402 442.305 251.167 444.835 249.706L469.33 235.565C471.859 234.106 475.094 234.97 476.555 237.501C478.015 240.03 477.149 243.265 474.619 244.726L450.124 258.867C449.291 259.348 448.381 259.576 447.484 259.576Z" fill="#FF8025"/>
<path id="Vector_15" d="M395.709 207.81C394.812 207.81 393.902 207.582 393.069 207.101C390.54 205.64 389.673 202.406 391.134 199.876L405.275 175.382C406.735 172.852 409.97 171.986 412.5 173.446C415.029 174.906 415.896 178.141 414.436 180.671L400.294 205.165C399.314 206.861 397.536 207.81 395.709 207.81Z" fill="#FF8025"/>
</g>
<g id="cloud-computing 1" clip-path="url(#clip1)">
<path id="Vector_16" d="M344.387 377.976C324.251 329.661 268.761 306.816 220.445 326.951C187.409 340.719 164.946 371.922 162.372 407.619C134.453 411.48 114.95 437.243 118.811 465.163C122.305 490.426 143.912 509.23 169.415 509.205H344.386C380.624 509.205 410 479.828 410 443.591C410 407.353 380.625 377.976 344.387 377.976Z" fill="#64B5F6"/>
<path id="Vector_17" d="M286.062 407.138C265.927 358.823 210.436 335.978 162.121 356.113C129.085 369.881 106.622 401.084 104.048 436.781C76.1295 440.642 56.6263 466.405 60.4873 494.325C63.9813 519.588 85.5882 538.392 111.091 538.367H286.062C322.3 538.367 351.677 508.99 351.677 472.753C351.677 436.515 322.3 407.138 286.062 407.138Z" fill="#BBDEFB"/>
</g>
</g>
</g>
<defs>
<clipPath id="clip0">
<rect width="350" height="350" fill="white" transform="translate(150 150)"/>
</clipPath>
<clipPath id="clip1">
<rect width="350" height="350" fill="white" transform="translate(60 254)"/>
</clipPath>
</defs>
</svg>
