<svg width="650" height="650" viewBox="0 0 650 650" fill="none" xmlns="http://www.w3.org/2000/svg">
<g id="moon">
<g id="moonSvg">
<g id="Moon">
<rect id="Rectangle 6" width="650" height="650" fill="#3E3C53"/>
</g>
<g id="moon 1">
<g id="Group">
<g id="XMLID 32">
<g id="Group_2">
<path id="Vector" d="M325 500C421.65 500 500 421.65 500 325C500 228.35 421.65 150 325 150C228.35 150 150 228.35 150 325C150 421.65 228.35 500 325 500Z" fill="#FEF0AE"/>
</g>
</g>
<path id="Vector_2" d="M254.878 325C254.878 246.619 306.419 180.277 377.449 157.995C360.893 152.802 343.27 150 325 150C228.35 150 150 228.35 150 325C150 421.65 228.35 500 325 500C343.27 500 360.898 497.197 377.455 492.002C306.425 469.722 254.878 403.381 254.878 325V325Z" fill="#FEE97D"/>
<g id="XMLID 222">
<g id="Group_3">
<path id="Vector_3" d="M499.965 327.926H499.972C499.562 353.254 493.766 377.273 483.686 398.889L483.672 398.882C470.163 393.411 460.635 380.178 460.635 364.705C460.635 344.347 477.14 327.842 497.498 327.842C498.325 327.842 499.145 327.877 499.965 327.926V327.926Z" fill="#FEE97D"/>
<path id="Vector_4" d="M325 472.566C340.247 472.566 353.063 483.007 356.668 497.137C346.397 499.017 335.815 500 325 500C314.185 500 303.603 499.017 293.332 497.137C296.937 483.007 309.753 472.566 325 472.566Z" fill="#FEDF30"/>
<g id="Group_4">
<path id="Vector_5" d="M367.236 394.5C379.02 394.5 388.577 404.056 388.577 415.84C388.577 427.631 379.02 437.18 367.236 437.18C355.446 437.18 345.889 427.631 345.889 415.84C345.889 404.056 355.446 394.5 367.236 394.5Z" fill="#FEE97D"/>
<path id="Vector_6" d="M405.93 374.841C414.264 374.841 421.021 368.085 421.021 359.75C421.021 351.415 414.264 344.658 405.93 344.658C397.595 344.658 390.838 351.415 390.838 359.75C390.838 368.085 397.595 374.841 405.93 374.841Z" fill="#FEE97D"/>
<path id="Vector_7" d="M373.428 319.585C395.856 319.585 414.038 301.404 414.038 278.976C414.038 256.548 395.856 238.366 373.428 238.366C351 238.366 332.818 256.548 332.818 278.976C332.818 301.404 351 319.585 373.428 319.585Z" fill="#FEE97D"/>
</g>
<path id="Vector_8" d="M254.878 382.801C267.788 382.801 278.254 372.335 278.254 359.425C278.254 346.514 267.788 336.048 254.878 336.048C241.968 336.048 231.502 346.514 231.502 359.425C231.502 372.335 241.968 382.801 254.878 382.801Z" fill="#FEE45A"/>
<path id="Vector_9" d="M254.878 382.801C258.119 382.801 261.207 382.14 264.013 380.947C259.214 366.715 256.196 351.663 255.223 336.057C255.108 336.055 254.994 336.048 254.878 336.048C241.964 336.048 231.502 346.517 231.502 359.425C231.502 372.332 241.964 382.801 254.878 382.801Z" fill="#FEDF30"/>
<path id="Vector_10" d="M211.491 285.415C219.373 285.415 225.763 291.805 225.763 299.68C225.763 307.562 219.373 313.952 211.491 313.952C203.61 313.952 197.227 307.562 197.227 299.68C197.227 291.805 203.61 285.415 211.491 285.415V285.415Z" fill="#FEDF30"/>
<path id="Vector_11" d="M272.515 158.016C274.098 163.862 274.954 170.012 274.954 176.359C274.954 214.976 243.646 246.283 205.023 246.283C193.43 246.283 182.495 243.455 172.867 238.465H172.86C194.526 200.449 230.032 171.348 272.515 158.009V158.016Z" fill="#FEDF30"/>
</g>
</g>
</g>
</g>
</g>
<path id="Vector_12" d="M149.87 144.107C149.542 143.094 148.644 142.375 147.582 142.28L133.151 140.969L127.444 127.613C127.023 126.634 126.065 126 125 126C123.936 126 122.977 126.634 122.556 127.615L116.85 140.969L102.416 142.28C101.356 142.378 100.46 143.094 100.131 144.107C99.8016 145.119 100.106 146.23 100.908 146.93L111.816 156.497L108.6 170.666C108.364 171.708 108.769 172.785 109.633 173.41C110.098 173.745 110.641 173.916 111.19 173.916C111.662 173.916 112.131 173.789 112.552 173.537L125 166.097L137.444 173.537C138.355 174.085 139.503 174.035 140.365 173.41C141.23 172.783 141.634 171.705 141.399 170.666L138.182 156.497L149.09 146.932C149.893 146.23 150.199 145.121 149.87 144.107V144.107Z" fill="#FFC107"/>
<path id="Vector_13" d="M324.87 67.1069C324.542 66.0945 323.644 65.3754 322.582 65.2796L308.151 63.9693L302.444 50.6125C302.023 49.6336 301.065 49 300 49C298.936 49 297.977 49.6336 297.556 50.6148L291.85 63.9693L277.416 65.2796C276.356 65.3777 275.46 66.0945 275.131 67.1069C274.802 68.1194 275.106 69.2299 275.908 69.9299L286.816 79.4966L283.6 93.6659C283.364 94.7077 283.769 95.7847 284.633 96.4095C285.098 96.7452 285.641 96.9161 286.19 96.9161C286.662 96.9161 287.131 96.7887 287.552 96.5369L300 89.0969L312.444 96.5369C313.355 97.0847 314.503 97.0348 315.365 96.4095C316.23 95.7827 316.634 94.7054 316.399 93.6659L313.182 79.4966L324.09 69.9318C324.893 69.2299 325.199 68.1213 324.87 67.1069V67.1069Z" fill="#FFC107"/>
<path id="Vector_14" d="M149.87 518.107C149.542 517.094 148.644 516.375 147.582 516.28L133.151 514.969L127.444 501.613C127.023 500.634 126.065 500 125 500C123.936 500 122.977 500.634 122.556 501.615L116.85 514.969L102.416 516.28C101.356 516.378 100.46 517.094 100.131 518.107C99.8016 519.119 100.106 520.23 100.908 520.93L111.816 530.497L108.6 544.666C108.364 545.708 108.769 546.785 109.633 547.41C110.098 547.745 110.641 547.916 111.19 547.916C111.662 547.916 112.131 547.789 112.552 547.537L125 540.097L137.444 547.537C138.355 548.085 139.503 548.035 140.365 547.41C141.23 546.783 141.634 545.705 141.399 544.666L138.182 530.497L149.09 520.932C149.893 520.23 150.199 519.121 149.87 518.107V518.107Z" fill="#FFC107"/>
<path id="Vector_15" d="M88.8697 295.107C88.5424 294.094 87.6444 293.375 86.5819 293.28L72.1506 291.969L66.444 278.613C66.0232 277.634 65.065 277 64.0003 277C62.9355 277 61.9773 277.634 61.5565 278.615L55.8499 291.969L41.4163 293.28C40.3558 293.378 39.4601 294.094 39.1308 295.107C38.8016 296.119 39.1057 297.23 39.9079 297.93L50.8163 307.497L47.5997 321.666C47.3643 322.708 47.7687 323.785 48.6331 324.41C49.0978 324.745 49.6414 324.916 50.1896 324.916C50.6622 324.916 51.131 324.789 51.5518 324.537L64.0003 317.097L76.4441 324.537C77.3547 325.085 78.5026 325.035 79.3651 324.41C80.2299 323.783 80.6339 322.705 80.3985 321.666L77.1819 307.497L88.0903 297.932C88.8926 297.23 89.1989 296.121 88.8697 295.107V295.107Z" fill="#FFC107"/>
<path id="Vector_16" d="M587.87 92.1069C587.542 91.0945 586.644 90.3754 585.582 90.2796L571.151 88.9693L565.444 75.6125C565.023 74.6336 564.065 74 563 74C561.936 74 560.977 74.6336 560.556 75.6148L554.85 88.9693L540.416 90.2796C539.356 90.3777 538.46 91.0945 538.131 92.1069C537.802 93.1194 538.106 94.2299 538.908 94.9299L549.816 104.497L546.6 118.666C546.364 119.708 546.769 120.785 547.633 121.41C548.098 121.745 548.641 121.916 549.19 121.916C549.662 121.916 550.131 121.789 550.552 121.537L563 114.097L575.444 121.537C576.355 122.085 577.503 122.035 578.365 121.41C579.23 120.783 579.634 119.705 579.399 118.666L576.182 104.497L587.09 94.9318C587.893 94.2299 588.199 93.1213 587.87 92.1069V92.1069Z" fill="#FFC107"/>
<g id="star (1) 2" clip-path="url(#clip0)">
<path id="Vector_17" d="M88.8697 92.1798C88.5424 91.1673 87.6444 90.4483 86.5819 90.3525L72.1506 89.0421L66.444 75.6854C66.0232 74.7065 65.065 74.0729 64.0003 74.0729C62.9355 74.0729 61.9773 74.7065 61.5565 75.6877L55.8499 89.0421L41.4163 90.3525C40.3558 90.4505 39.4601 91.1673 39.1308 92.1798C38.8016 93.1922 39.1057 94.3027 39.9079 95.0027L50.8163 104.569L47.5997 118.739C47.3643 119.781 47.7687 120.858 48.6331 121.482C49.0978 121.818 49.6414 121.989 50.1896 121.989C50.6622 121.989 51.131 121.862 51.5518 121.61L64.0003 114.17L76.4441 121.61C77.3547 122.158 78.5026 122.108 79.3651 121.482C80.2299 120.856 80.6339 119.778 80.3985 118.739L77.1819 104.569L88.0903 95.0046C88.8926 94.3027 89.1989 93.1941 88.8697 92.1798V92.1798Z" fill="#FFC107"/>
</g>
</g>
<defs>
<clipPath id="clip0">
<rect width="50" height="50" fill="white" transform="translate(39 73)"/>
</clipPath>
</defs>
</svg>
